<?xml version="1.0" encoding="utf-8"?>
<!-- Generator: Adobe Illustrator 16.0.0, SVG Export Plug-In . SVG Version: 6.00 Build 0)  -->
<!DOCTYPE svg PUBLIC "-//W3C//DTD SVG 1.1//EN" "http://www.w3.org/Graphics/SVG/1.1/DTD/svg11.dtd">
<svg version="1.1" id="Layer_1" xmlns="http://www.w3.org/2000/svg" xmlns:xlink="http://www.w3.org/1999/xlink" x="0px" y="0px"
	 width="185px" height="188px" viewBox="0 0 185 188" enable-background="new 0 0 185 188" xml:space="preserve">
<g>
	
		<radialGradient id="SVGID_1_" cx="-13080.1582" cy="793.2402" r="20.1123" gradientTransform="matrix(0.498 0 0 0.498 6531.543 -345.2012)" gradientUnits="userSpaceOnUse">
		<stop  offset="0" style="stop-color:#FFCF4F"/>
		<stop  offset="1" style="stop-color:#F4C236"/>
	</radialGradient>
	<path fill="url(#SVGID_1_)" d="M8.91,61h6.791c1.607,0,3.604-1.128,4.432-2.511l5.72-9.519c0.677-1.396,0.653-3.426-0.119-4.713
		l-3.378-5.592L8.91,61z"/>
	
		<radialGradient id="SVGID_2_" cx="-13092.21" cy="783.0264" r="27.6567" gradientTransform="matrix(0.498 0 0 0.498 6531.543 -345.2012)" gradientUnits="userSpaceOnUse">
		<stop  offset="0" style="stop-color:#08A960"/>
		<stop  offset="1" style="stop-color:#07914B"/>
	</radialGradient>
	<path fill="url(#SVGID_2_)" d="M16.209,33.514L1.108,58.763C0.524,60.011,1.131,61,2.629,61H8.91l13.446-22.335L16.21,28.492
		C17.039,29.87,17.039,32.13,16.209,33.514"/>
	
		<radialGradient id="SVGID_3_" cx="-13082.7588" cy="743.3457" r="40.5383" gradientTransform="matrix(0.498 0 0 0.498 6531.543 -345.2012)" gradientUnits="userSpaceOnUse">
		<stop  offset="0" style="stop-color:#567FC0"/>
		<stop  offset="1" style="stop-color:#557FC0"/>
	</radialGradient>
	<path fill="url(#SVGID_3_)" d="M2.629,1C1.015,1,0.375,2.133,1.205,3.511l24.529,40.745c0.772,1.288,0.795,3.317,0.119,4.713
		l5.963-9.925L8.914,1H2.629z"/>
	
		<radialGradient id="SVGID_4_" cx="-13070.6943" cy="733.3809" r="33.0574" gradientTransform="matrix(0.498 0 0 0.498 6531.543 -345.2012)" gradientUnits="userSpaceOnUse">
		<stop  offset="0" style="stop-color:#E14C40"/>
		<stop  offset="1" style="stop-color:#CD392D"/>
	</radialGradient>
	<path fill="url(#SVGID_4_)" d="M8.914,1l22.903,38.045l3.321-5.53c0.83-1.385,0.83-3.645,0-5.023L20.133,3.511
		C19.305,2.133,17.308,1,15.701,1H8.914z"/>
	<g>
		<path fill="#4E4E4E" d="M57.152,26.5l-3.066-10.797h-0.092c0.144,1.839,0.215,3.268,0.215,4.286V26.5H50.62V11.509h5.394
			l3.127,10.644h0.082l3.066-10.644h5.404V26.5h-3.722v-6.573c0-0.342,0.005-0.721,0.016-1.138c0.01-0.417,0.056-1.439,0.138-3.066
			h-0.092L61.007,26.5H57.152z"/>
		<path fill="#4E4E4E" d="M79.823,26.5h-8.9V11.509h8.9v3.25h-4.85v2.358h4.491v3.25h-4.491v2.83h4.85V26.5z"/>
		<path fill="#4E4E4E" d="M96.722,26.5H91.41l-5.476-10.562h-0.093c0.13,1.661,0.195,2.929,0.195,3.804V26.5h-3.589V11.509h5.291
			l5.455,10.418h0.062c-0.096-1.511-0.144-2.724-0.144-3.64v-6.778h3.609V26.5z"/>
		<path fill="#4E4E4E" d="M109.16,26.5l-0.738-2.81h-4.871l-0.759,2.81h-4.45l4.891-15.053h5.404L113.59,26.5H109.16z
			 M107.58,20.368l-0.646-2.461c-0.15-0.547-0.333-1.254-0.549-2.123c-0.215-0.868-0.357-1.49-0.425-1.866
			c-0.062,0.349-0.184,0.923-0.364,1.723c-0.182,0.8-0.583,2.375-1.205,4.727H107.58z"/>
		<path fill="#4E4E4E" d="M121.824,26.5h-4.051V14.821h-3.66v-3.312h11.361v3.312h-3.65V26.5z"/>
		<path fill="#4E4E4E" d="M139.09,17.723h6.471v8.08c-1.757,0.602-3.688,0.902-5.793,0.902c-2.312,0-4.097-0.67-5.358-2.01
			c-1.261-1.34-1.892-3.25-1.892-5.732c0-2.42,0.69-4.303,2.071-5.65s3.315-2.02,5.804-2.02c0.943,0,1.834,0.089,2.671,0.267
			c0.838,0.178,1.567,0.403,2.189,0.677l-1.282,3.179c-1.08-0.533-2.266-0.8-3.558-0.8c-1.183,0-2.097,0.384-2.743,1.154
			c-0.646,0.769-0.969,1.868-0.969,3.296c0,1.401,0.292,2.47,0.877,3.205c0.584,0.735,1.427,1.102,2.527,1.102
			c0.602,0,1.155-0.058,1.661-0.174V20.85h-2.677V17.723z"/>
		<path fill="#4E4E4E" d="M161.342,18.687c0,2.502-0.689,4.43-2.066,5.783c-1.378,1.354-3.314,2.03-5.809,2.03h-4.851V11.509h5.188
			c2.406,0,4.264,0.615,5.573,1.846C160.687,14.585,161.342,16.362,161.342,18.687z M157.137,18.83c0-1.374-0.271-2.393-0.814-3.056
			c-0.544-0.663-1.369-0.995-2.477-0.995h-1.18v8.398h0.902c1.23,0,2.133-0.357,2.707-1.071S157.137,20.3,157.137,18.83z"/>
		<path fill="#4E4E4E" d="M170.047,17.723h6.471v8.08c-1.757,0.602-3.688,0.902-5.793,0.902c-2.312,0-4.097-0.67-5.358-2.01
			c-1.261-1.34-1.892-3.25-1.892-5.732c0-2.42,0.69-4.303,2.071-5.65s3.315-2.02,5.804-2.02c0.943,0,1.834,0.089,2.671,0.267
			c0.838,0.178,1.567,0.403,2.189,0.677l-1.282,3.179c-1.08-0.533-2.266-0.8-3.558-0.8c-1.183,0-2.097,0.384-2.743,1.154
			c-0.646,0.769-0.969,1.868-0.969,3.296c0,1.401,0.292,2.47,0.877,3.205c0.584,0.735,1.427,1.102,2.527,1.102
			c0.602,0,1.155-0.058,1.661-0.174V20.85h-2.677V17.723z"/>
		<path fill="#4E4E4E" d="M59.117,43.623c0,1.27-0.459,2.266-1.377,2.988s-2.184,1.084-3.799,1.084s-2.936-0.25-3.965-0.752v-2.207
			c0.651,0.306,1.343,0.547,2.075,0.723s1.415,0.264,2.046,0.264c0.924,0,1.606-0.176,2.046-0.527s0.659-0.824,0.659-1.416
			c0-0.534-0.202-0.986-0.605-1.357s-1.237-0.811-2.5-1.318c-1.302-0.527-2.22-1.129-2.754-1.807s-0.801-1.491-0.801-2.441
			c0-1.191,0.423-2.129,1.27-2.812s1.982-1.025,3.408-1.025c1.367,0,2.728,0.299,4.082,0.898L58.16,35.82
			c-1.27-0.534-2.402-0.801-3.398-0.801c-0.755,0-1.328,0.165-1.719,0.493s-0.586,0.763-0.586,1.304
			c0,0.371,0.078,0.688,0.234,0.952s0.414,0.513,0.771,0.747s1.002,0.543,1.934,0.928c1.048,0.436,1.816,0.843,2.305,1.221
			s0.846,0.804,1.074,1.279S59.117,42.979,59.117,43.623z"/>
		<path fill="#4E4E4E" d="M69.254,47.5l-0.322-1.416h-0.117c-0.319,0.501-0.773,0.895-1.362,1.182s-1.261,0.43-2.017,0.43
			c-1.309,0-2.285-0.326-2.93-0.977s-0.967-1.637-0.967-2.959v-7.061h2.314v6.66c0,0.827,0.169,1.447,0.508,1.86
			s0.869,0.62,1.592,0.62c0.963,0,1.671-0.288,2.124-0.864s0.679-1.542,0.679-2.896v-5.381h2.305V47.5H69.254z"/>
		<path fill="#4E4E4E" d="M83.434,47.5h-2.305v-6.66c0-0.827-0.156-1.444-0.469-1.851s-0.801-0.61-1.465-0.61
			c-0.885,0-1.535,0.288-1.948,0.864s-0.62,1.535-0.62,2.876V47.5h-2.295V36.699h1.797l0.322,1.416h0.117
			c0.299-0.514,0.734-0.912,1.304-1.191s1.196-0.42,1.88-0.42c1.66,0,2.76,0.566,3.301,1.699h0.156
			c0.319-0.534,0.768-0.951,1.348-1.25c0.58-0.299,1.243-0.449,1.992-0.449c1.289,0,2.229,0.326,2.817,0.977
			s0.884,1.644,0.884,2.979V47.5h-2.295v-6.66c0-0.827-0.158-1.444-0.474-1.851s-0.806-0.61-1.47-0.61
			c-0.893,0-1.544,0.278-1.958,0.835s-0.62,1.411-0.62,2.563V47.5z"/>
		<path fill="#4E4E4E" d="M102.555,47.5h-2.305v-6.66c0-0.827-0.156-1.444-0.469-1.851s-0.801-0.61-1.465-0.61
			c-0.886,0-1.535,0.288-1.948,0.864s-0.62,1.535-0.62,2.876V47.5h-2.295V36.699h1.797l0.322,1.416h0.117
			c0.3-0.514,0.734-0.912,1.304-1.191s1.196-0.42,1.88-0.42c1.66,0,2.761,0.566,3.301,1.699h0.156
			c0.319-0.534,0.769-0.951,1.348-1.25s1.243-0.449,1.992-0.449c1.289,0,2.229,0.326,2.817,0.977s0.884,1.644,0.884,2.979V47.5
			h-2.295v-6.66c0-0.827-0.158-1.444-0.474-1.851s-0.806-0.61-1.47-0.61c-0.892,0-1.545,0.278-1.958,0.835s-0.62,1.411-0.62,2.563
			V47.5z"/>
		<path fill="#4E4E4E" d="M112.438,33.838c0-0.41,0.112-0.726,0.337-0.947s0.545-0.332,0.962-0.332c0.403,0,0.718,0.111,0.942,0.332
			s0.337,0.537,0.337,0.947c0,0.391-0.112,0.698-0.337,0.923s-0.539,0.337-0.942,0.337c-0.417,0-0.737-0.112-0.962-0.337
			S112.438,34.229,112.438,33.838z M114.869,47.5h-2.295V36.699h2.295V47.5z"/>
		<path fill="#4E4E4E" d="M122.174,45.84c0.56,0,1.12-0.088,1.68-0.264v1.729c-0.254,0.111-0.581,0.204-0.981,0.278
			s-0.815,0.112-1.245,0.112c-2.175,0-3.262-1.146-3.262-3.438v-5.82h-1.475v-1.016l1.582-0.84l0.781-2.285h1.416v2.402h3.076v1.738
			h-3.076v5.781c0,0.553,0.139,0.962,0.415,1.226S121.725,45.84,122.174,45.84z"/>
		<path fill="#4E4E4E" d="M140.123,47.5h-9.678v-1.738l3.682-3.701c1.087-1.113,1.809-1.903,2.163-2.368s0.613-0.903,0.776-1.313
			s0.244-0.85,0.244-1.318c0-0.645-0.193-1.152-0.581-1.523s-0.923-0.557-1.606-0.557c-0.547,0-1.076,0.101-1.587,0.303
			s-1.102,0.566-1.772,1.094l-1.24-1.514c0.794-0.67,1.565-1.146,2.314-1.426s1.546-0.42,2.393-0.42c1.328,0,2.393,0.347,3.193,1.04
			s1.201,1.626,1.201,2.798c0,0.645-0.115,1.256-0.347,1.836s-0.586,1.177-1.064,1.792s-1.274,1.447-2.388,2.495l-2.48,2.402v0.098
			h6.777V47.5z"/>
		<path fill="#4E4E4E" d="M151.539,40.361c0,2.48-0.398,4.323-1.196,5.527s-2.017,1.807-3.657,1.807
			c-1.589,0-2.793-0.622-3.613-1.865s-1.23-3.066-1.23-5.469c0-2.52,0.398-4.376,1.196-5.571s2.014-1.792,3.647-1.792
			c1.595,0,2.803,0.625,3.623,1.875S151.539,37.953,151.539,40.361z M144.166,40.361c0,1.947,0.2,3.336,0.601,4.17
			s1.04,1.25,1.919,1.25s1.521-0.423,1.929-1.27s0.61-2.23,0.61-4.15c0-1.914-0.203-3.299-0.61-4.155s-1.05-1.284-1.929-1.284
			s-1.519,0.42-1.919,1.26S144.166,38.415,144.166,40.361z"/>
		<path fill="#4E4E4E" d="M160.016,47.5h-2.295v-9.219c0-1.1,0.026-1.973,0.078-2.617c-0.149,0.156-0.334,0.329-0.552,0.518
			s-0.949,0.788-2.192,1.797l-1.152-1.455l4.199-3.301h1.914V47.5z"/>
		<path fill="#4E4E4E" d="M174.879,44.385h-1.924V47.5h-2.236v-3.115h-6.523v-1.768l6.523-9.434h2.236v9.297h1.924V44.385z
			 M170.719,42.48v-3.584c0-1.276,0.032-2.321,0.098-3.135h-0.078c-0.183,0.43-0.469,0.951-0.859,1.562l-3.545,5.156H170.719z"/>
	</g>
</g>
<g>
	
		<radialGradient id="SVGID_5_" cx="-13080.1582" cy="919.7441" r="20.1134" gradientTransform="matrix(0.498 0 0 0.498 6531.543 -345.2012)" gradientUnits="userSpaceOnUse">
		<stop  offset="0" style="stop-color:#CCCCCC"/>
		<stop  offset="1" style="stop-color:#C0C0C0"/>
	</radialGradient>
	<path fill="url(#SVGID_5_)" d="M8.91,124h6.791c1.607,0,3.604-1.128,4.432-2.512l5.72-9.518c0.677-1.396,0.653-3.428-0.119-4.715
		l-3.378-5.592L8.91,124z"/>
	
		<radialGradient id="SVGID_6_" cx="-13092.21" cy="909.5322" r="27.6567" gradientTransform="matrix(0.498 0 0 0.498 6531.543 -345.2012)" gradientUnits="userSpaceOnUse">
		<stop  offset="0" style="stop-color:#A0A0A0"/>
		<stop  offset="1" style="stop-color:#7B7B7B"/>
	</radialGradient>
	<path fill="url(#SVGID_6_)" d="M16.209,96.514l-15.101,25.25C0.524,123.012,1.131,124,2.629,124H8.91l13.446-22.335L16.21,91.492
		C17.039,92.87,17.039,95.13,16.209,96.514"/>
	
		<radialGradient id="SVGID_7_" cx="-13082.7588" cy="869.8506" r="40.5378" gradientTransform="matrix(0.498 0 0 0.498 6531.543 -345.2012)" gradientUnits="userSpaceOnUse">
		<stop  offset="0" style="stop-color:#848484"/>
		<stop  offset="1" style="stop-color:#838383"/>
	</radialGradient>
	<path fill="url(#SVGID_7_)" d="M2.629,64c-1.613,0-2.254,1.133-1.424,2.511l24.529,40.745c0.772,1.288,0.795,3.316,0.119,4.713
		l5.963-9.925L8.914,64H2.629z"/>
	
		<radialGradient id="SVGID_8_" cx="-13070.6943" cy="859.8867" r="33.0574" gradientTransform="matrix(0.498 0 0 0.498 6531.543 -345.2012)" gradientUnits="userSpaceOnUse">
		<stop  offset="0" style="stop-color:#626262"/>
		<stop  offset="1" style="stop-color:#474747"/>
	</radialGradient>
	<path fill="url(#SVGID_8_)" d="M8.914,64l22.903,38.045l3.321-5.529c0.83-1.386,0.83-3.646,0-5.022l-15.004-24.98
		C19.305,65.133,17.308,64,15.701,64H8.914z"/>
	<g>
		<path fill="#4E4E4E" d="M57.152,89.5l-3.066-10.797h-0.092c0.144,1.839,0.215,3.268,0.215,4.286V89.5H50.62V74.509h5.394
			l3.127,10.644h0.082l3.066-10.644h5.404V89.5h-3.722v-6.573c0-0.342,0.005-0.721,0.016-1.138c0.01-0.417,0.056-1.439,0.138-3.066
			h-0.092L61.007,89.5H57.152z"/>
		<path fill="#4E4E4E" d="M79.823,89.5h-8.9V74.509h8.9v3.25h-4.85v2.358h4.491v3.25h-4.491v2.83h4.85V89.5z"/>
		<path fill="#4E4E4E" d="M96.722,89.5H91.41l-5.476-10.562h-0.093c0.13,1.661,0.195,2.929,0.195,3.804V89.5h-3.589V74.509h5.291
			l5.455,10.418h0.062c-0.096-1.511-0.144-2.724-0.144-3.64v-6.778h3.609V89.5z"/>
		<path fill="#4E4E4E" d="M109.16,89.5l-0.738-2.81h-4.871l-0.759,2.81h-4.45l4.891-15.053h5.404L113.59,89.5H109.16z
			 M107.58,83.368l-0.646-2.461c-0.15-0.547-0.333-1.254-0.549-2.123c-0.215-0.868-0.357-1.49-0.425-1.866
			c-0.062,0.349-0.184,0.923-0.364,1.723c-0.182,0.8-0.583,2.375-1.205,4.727H107.58z"/>
		<path fill="#4E4E4E" d="M121.824,89.5h-4.051V77.821h-3.66v-3.312h11.361v3.312h-3.65V89.5z"/>
		<path fill="#4E4E4E" d="M139.09,80.723h6.471v8.08c-1.757,0.602-3.688,0.902-5.793,0.902c-2.312,0-4.097-0.67-5.358-2.01
			c-1.261-1.34-1.892-3.25-1.892-5.732c0-2.42,0.69-4.303,2.071-5.65s3.315-2.02,5.804-2.02c0.943,0,1.834,0.089,2.671,0.267
			c0.838,0.178,1.567,0.403,2.189,0.677l-1.282,3.179c-1.08-0.533-2.266-0.8-3.558-0.8c-1.183,0-2.097,0.384-2.743,1.154
			c-0.646,0.769-0.969,1.868-0.969,3.296c0,1.401,0.292,2.47,0.877,3.205c0.584,0.735,1.427,1.102,2.527,1.102
			c0.602,0,1.155-0.058,1.661-0.174V83.85h-2.677V80.723z"/>
		<path fill="#4E4E4E" d="M161.342,81.687c0,2.502-0.689,4.43-2.066,5.783c-1.378,1.354-3.314,2.03-5.809,2.03h-4.851V74.509h5.188
			c2.406,0,4.264,0.615,5.573,1.846C160.687,77.585,161.342,79.362,161.342,81.687z M157.137,81.83c0-1.374-0.271-2.393-0.814-3.056
			c-0.544-0.663-1.369-0.995-2.477-0.995h-1.18v8.398h0.902c1.23,0,2.133-0.357,2.707-1.071S157.137,83.3,157.137,81.83z"/>
		<path fill="#4E4E4E" d="M170.047,80.723h6.471v8.08c-1.757,0.602-3.688,0.902-5.793,0.902c-2.312,0-4.097-0.67-5.358-2.01
			c-1.261-1.34-1.892-3.25-1.892-5.732c0-2.42,0.69-4.303,2.071-5.65s3.315-2.02,5.804-2.02c0.943,0,1.834,0.089,2.671,0.267
			c0.838,0.178,1.567,0.403,2.189,0.677l-1.282,3.179c-1.08-0.533-2.266-0.8-3.558-0.8c-1.183,0-2.097,0.384-2.743,1.154
			c-0.646,0.769-0.969,1.868-0.969,3.296c0,1.401,0.292,2.47,0.877,3.205c0.584,0.735,1.427,1.102,2.527,1.102
			c0.602,0,1.155-0.058,1.661-0.174V83.85h-2.677V80.723z"/>
		<path fill="#4E4E4E" d="M59.117,106.623c0,1.27-0.459,2.266-1.377,2.988s-2.184,1.084-3.799,1.084s-2.936-0.25-3.965-0.752v-2.207
			c0.651,0.307,1.343,0.547,2.075,0.723s1.415,0.264,2.046,0.264c0.924,0,1.606-0.176,2.046-0.527s0.659-0.824,0.659-1.416
			c0-0.533-0.202-0.986-0.605-1.357s-1.237-0.811-2.5-1.318c-1.302-0.527-2.22-1.129-2.754-1.807s-0.801-1.49-0.801-2.441
			c0-1.191,0.423-2.129,1.27-2.812s1.982-1.025,3.408-1.025c1.367,0,2.728,0.299,4.082,0.898L58.16,98.82
			c-1.27-0.533-2.402-0.801-3.398-0.801c-0.755,0-1.328,0.164-1.719,0.493s-0.586,0.763-0.586,1.304
			c0,0.371,0.078,0.688,0.234,0.952s0.414,0.513,0.771,0.747s1.002,0.543,1.934,0.928c1.048,0.436,1.816,0.844,2.305,1.221
			s0.846,0.805,1.074,1.279S59.117,105.979,59.117,106.623z"/>
		<path fill="#4E4E4E" d="M69.254,110.5l-0.322-1.416h-0.117c-0.319,0.502-0.773,0.895-1.362,1.182s-1.261,0.43-2.017,0.43
			c-1.309,0-2.285-0.326-2.93-0.977s-0.967-1.637-0.967-2.959v-7.061h2.314v6.66c0,0.826,0.169,1.447,0.508,1.86
			s0.869,0.62,1.592,0.62c0.963,0,1.671-0.288,2.124-0.864s0.679-1.542,0.679-2.896v-5.381h2.305V110.5H69.254z"/>
		<path fill="#4E4E4E" d="M83.434,110.5h-2.305v-6.66c0-0.826-0.156-1.443-0.469-1.851s-0.801-0.61-1.465-0.61
			c-0.885,0-1.535,0.288-1.948,0.864s-0.62,1.534-0.62,2.876v5.381h-2.295V99.699h1.797l0.322,1.416h0.117
			c0.299-0.514,0.734-0.912,1.304-1.191s1.196-0.42,1.88-0.42c1.66,0,2.76,0.566,3.301,1.699h0.156
			c0.319-0.533,0.768-0.951,1.348-1.25c0.58-0.299,1.243-0.449,1.992-0.449c1.289,0,2.229,0.326,2.817,0.977
			s0.884,1.645,0.884,2.979v7.041h-2.295v-6.66c0-0.826-0.158-1.443-0.474-1.851s-0.806-0.61-1.47-0.61
			c-0.893,0-1.544,0.278-1.958,0.835s-0.62,1.411-0.62,2.563V110.5z"/>
		<path fill="#4E4E4E" d="M102.555,110.5h-2.305v-6.66c0-0.826-0.156-1.443-0.469-1.851s-0.801-0.61-1.465-0.61
			c-0.886,0-1.535,0.288-1.948,0.864s-0.62,1.534-0.62,2.876v5.381h-2.295V99.699h1.797l0.322,1.416h0.117
			c0.3-0.514,0.734-0.912,1.304-1.191s1.196-0.42,1.88-0.42c1.66,0,2.761,0.566,3.301,1.699h0.156
			c0.319-0.533,0.769-0.951,1.348-1.25s1.243-0.449,1.992-0.449c1.289,0,2.229,0.326,2.817,0.977s0.884,1.645,0.884,2.979v7.041
			h-2.295v-6.66c0-0.826-0.158-1.443-0.474-1.851s-0.806-0.61-1.47-0.61c-0.892,0-1.545,0.278-1.958,0.835s-0.62,1.411-0.62,2.563
			V110.5z"/>
		<path fill="#4E4E4E" d="M112.438,96.838c0-0.41,0.112-0.727,0.337-0.947s0.545-0.332,0.962-0.332c0.403,0,0.718,0.111,0.942,0.332
			s0.337,0.537,0.337,0.947c0,0.391-0.112,0.698-0.337,0.923s-0.539,0.337-0.942,0.337c-0.417,0-0.737-0.112-0.962-0.337
			S112.438,97.229,112.438,96.838z M114.869,110.5h-2.295V99.699h2.295V110.5z"/>
		<path fill="#4E4E4E" d="M122.174,108.84c0.56,0,1.12-0.088,1.68-0.264v1.729c-0.254,0.111-0.581,0.203-0.981,0.278
			s-0.815,0.112-1.245,0.112c-2.175,0-3.262-1.146-3.262-3.438v-5.82h-1.475v-1.016l1.582-0.84l0.781-2.285h1.416v2.402h3.076v1.738
			h-3.076v5.781c0,0.553,0.139,0.962,0.415,1.226S121.725,108.84,122.174,108.84z"/>
		<path fill="#4E4E4E" d="M140.123,110.5h-9.678v-1.738l3.682-3.701c1.087-1.113,1.809-1.902,2.163-2.368s0.613-0.903,0.776-1.313
			s0.244-0.85,0.244-1.318c0-0.645-0.193-1.152-0.581-1.523s-0.923-0.557-1.606-0.557c-0.547,0-1.076,0.102-1.587,0.303
			s-1.102,0.566-1.772,1.094l-1.24-1.514c0.794-0.67,1.565-1.146,2.314-1.426s1.546-0.42,2.393-0.42c1.328,0,2.393,0.347,3.193,1.04
			s1.201,1.626,1.201,2.798c0,0.645-0.115,1.256-0.347,1.836s-0.586,1.177-1.064,1.792s-1.274,1.446-2.388,2.495l-2.48,2.402v0.098
			h6.777V110.5z"/>
		<path fill="#4E4E4E" d="M151.539,103.361c0,2.48-0.398,4.322-1.196,5.527s-2.017,1.807-3.657,1.807
			c-1.589,0-2.793-0.621-3.613-1.865s-1.23-3.066-1.23-5.469c0-2.52,0.398-4.377,1.196-5.571s2.014-1.792,3.647-1.792
			c1.595,0,2.803,0.625,3.623,1.875S151.539,100.953,151.539,103.361z M144.166,103.361c0,1.947,0.2,3.336,0.601,4.17
			s1.04,1.25,1.919,1.25s1.521-0.424,1.929-1.27s0.61-2.23,0.61-4.15c0-1.914-0.203-3.299-0.61-4.155s-1.05-1.284-1.929-1.284
			s-1.519,0.42-1.919,1.26S144.166,101.414,144.166,103.361z"/>
		<path fill="#4E4E4E" d="M160.016,110.5h-2.295v-9.219c0-1.1,0.026-1.973,0.078-2.617c-0.149,0.156-0.334,0.328-0.552,0.518
			s-0.949,0.787-2.192,1.797l-1.152-1.455l4.199-3.301h1.914V110.5z"/>
		<path fill="#4E4E4E" d="M174.879,107.385h-1.924v3.115h-2.236v-3.115h-6.523v-1.768l6.523-9.434h2.236v9.297h1.924V107.385z
			 M170.719,105.48v-3.584c0-1.275,0.032-2.32,0.098-3.135h-0.078c-0.183,0.43-0.469,0.951-0.859,1.562l-3.545,5.156H170.719z"/>
	</g>
</g>
<g>
	
		<radialGradient id="SVGID_9_" cx="-13079.8408" cy="1046.251" r="20.1131" gradientTransform="matrix(0.498 0 0 0.498 6531.543 -345.2012)" gradientUnits="userSpaceOnUse">
		<stop  offset="0" style="stop-color:#FFCF4F"/>
		<stop  offset="1" style="stop-color:#F4C236"/>
	</radialGradient>
	<path fill="url(#SVGID_9_)" d="M9.068,187h6.791c1.607,0,3.604-1.128,4.432-2.512l5.72-9.518c0.677-1.396,0.653-3.428-0.119-4.715
		l-3.378-5.592L9.068,187z"/>
	
		<radialGradient id="SVGID_10_" cx="-13091.8916" cy="1036.0381" r="27.6563" gradientTransform="matrix(0.498 0 0 0.498 6531.543 -345.2012)" gradientUnits="userSpaceOnUse">
		<stop  offset="0" style="stop-color:#08A960"/>
		<stop  offset="1" style="stop-color:#07914B"/>
	</radialGradient>
	<path fill="url(#SVGID_10_)" d="M16.368,159.514l-15.102,25.25C0.683,186.012,1.289,187,2.787,187h6.281l13.446-22.335
		l-6.146-10.173C17.197,155.87,17.197,158.13,16.368,159.514"/>
	
		<radialGradient id="SVGID_11_" cx="-13082.4414" cy="996.3564" r="40.5378" gradientTransform="matrix(0.498 0 0 0.498 6531.543 -345.2012)" gradientUnits="userSpaceOnUse">
		<stop  offset="0" style="stop-color:#567FC0"/>
		<stop  offset="1" style="stop-color:#557FC0"/>
	</radialGradient>
	<path fill="url(#SVGID_11_)" d="M2.787,127c-1.613,0-2.254,1.133-1.424,2.512l24.529,40.744c0.772,1.288,0.795,3.316,0.119,4.713
		l5.963-9.925L9.072,127H2.787z"/>
	
		<radialGradient id="SVGID_12_" cx="-13070.377" cy="986.3926" r="33.0572" gradientTransform="matrix(0.498 0 0 0.498 6531.543 -345.2012)" gradientUnits="userSpaceOnUse">
		<stop  offset="0" style="stop-color:#E14C40"/>
		<stop  offset="1" style="stop-color:#CD392D"/>
	</radialGradient>
	<path fill="url(#SVGID_12_)" d="M9.072,127l22.903,38.045l3.321-5.529c0.83-1.386,0.83-3.646,0-5.022l-15.004-24.979
		C19.463,128.133,17.467,127,15.86,127H9.072z"/>
	<g>
		<path fill="#E6E6E5" d="M59.152,152.5l-3.066-10.797h-0.092c0.144,1.838,0.215,3.268,0.215,4.285v6.512H52.62v-14.991h5.394
			l3.127,10.644h0.082l3.066-10.644h5.404V152.5h-3.722v-6.572c0-0.342,0.005-0.722,0.016-1.139c0.01-0.417,0.056-1.439,0.138-3.066
			h-0.092L63.007,152.5H59.152z"/>
		<path fill="#E6E6E5" d="M81.823,152.5h-8.9v-14.991h8.9v3.251h-4.85v2.357h4.491v3.251h-4.491v2.83h4.85V152.5z"/>
		<path fill="#E6E6E5" d="M98.722,152.5H93.41l-5.476-10.562h-0.093c0.13,1.661,0.195,2.929,0.195,3.804v6.758h-3.589v-14.991h5.291
			l5.455,10.418h0.062c-0.096-1.511-0.144-2.724-0.144-3.64v-6.778h3.609V152.5z"/>
		<path fill="#E6E6E5" d="M111.16,152.5l-0.738-2.81h-4.871l-0.759,2.81h-4.45l4.891-15.053h5.404l4.953,15.053H111.16z
			 M109.58,146.368l-0.646-2.461c-0.15-0.547-0.333-1.255-0.549-2.122c-0.215-0.869-0.357-1.49-0.425-1.867
			c-0.062,0.35-0.184,0.924-0.364,1.723c-0.182,0.801-0.583,2.376-1.205,4.728H109.58z"/>
		<path fill="#E6E6E5" d="M123.824,152.5h-4.051v-11.68h-3.66v-3.312h11.361v3.312h-3.65V152.5z"/>
		<path fill="#E6E6E5" d="M141.09,143.723h6.471v8.08c-1.757,0.602-3.688,0.902-5.793,0.902c-2.312,0-4.097-0.67-5.358-2.01
			c-1.261-1.34-1.892-3.25-1.892-5.732c0-2.42,0.69-4.303,2.071-5.649s3.315-2.021,5.804-2.021c0.943,0,1.834,0.09,2.671,0.268
			c0.838,0.178,1.567,0.402,2.189,0.676l-1.282,3.18c-1.08-0.533-2.266-0.801-3.558-0.801c-1.183,0-2.097,0.385-2.743,1.154
			c-0.646,0.769-0.969,1.867-0.969,3.297c0,1.4,0.292,2.469,0.877,3.204c0.584,0.735,1.427,1.103,2.527,1.103
			c0.602,0,1.155-0.059,1.661-0.175v-2.349h-2.677V143.723z"/>
		<path fill="#E6E6E5" d="M163.342,144.687c0,2.502-0.689,4.43-2.066,5.783c-1.378,1.354-3.314,2.03-5.809,2.03h-4.851v-14.991
			h5.188c2.406,0,4.264,0.615,5.573,1.846C162.687,140.585,163.342,142.362,163.342,144.687z M159.137,144.83
			c0-1.374-0.271-2.393-0.814-3.056c-0.544-0.663-1.369-0.995-2.477-0.995h-1.18v8.398h0.902c1.23,0,2.133-0.357,2.707-1.071
			S159.137,146.3,159.137,144.83z"/>
		<path fill="#E6E6E5" d="M172.047,143.723h6.471v8.08c-1.757,0.602-3.688,0.902-5.793,0.902c-2.312,0-4.097-0.67-5.358-2.01
			c-1.261-1.34-1.892-3.25-1.892-5.732c0-2.42,0.69-4.303,2.071-5.649s3.315-2.021,5.804-2.021c0.943,0,1.834,0.09,2.671,0.268
			c0.838,0.178,1.567,0.402,2.189,0.676l-1.282,3.18c-1.08-0.533-2.266-0.801-3.558-0.801c-1.183,0-2.097,0.385-2.743,1.154
			c-0.646,0.769-0.969,1.867-0.969,3.297c0,1.4,0.292,2.469,0.877,3.204c0.584,0.735,1.427,1.103,2.527,1.103
			c0.602,0,1.155-0.059,1.661-0.175v-2.349h-2.677V143.723z"/>
		<path fill="#E6E6E5" d="M61.117,169.623c0,1.27-0.459,2.266-1.377,2.988s-2.184,1.084-3.799,1.084s-2.936-0.25-3.965-0.752v-2.207
			c0.651,0.307,1.343,0.547,2.075,0.723s1.415,0.264,2.046,0.264c0.924,0,1.606-0.176,2.046-0.527s0.659-0.824,0.659-1.416
			c0-0.533-0.202-0.986-0.605-1.357s-1.237-0.811-2.5-1.318c-1.302-0.527-2.22-1.129-2.754-1.807s-0.801-1.49-0.801-2.441
			c0-1.191,0.423-2.129,1.27-2.812s1.982-1.025,3.408-1.025c1.367,0,2.728,0.299,4.082,0.898l-0.742,1.904
			c-1.27-0.533-2.402-0.801-3.398-0.801c-0.755,0-1.328,0.164-1.719,0.493s-0.586,0.763-0.586,1.304
			c0,0.371,0.078,0.688,0.234,0.952s0.414,0.513,0.771,0.747s1.002,0.543,1.934,0.928c1.048,0.436,1.816,0.844,2.305,1.221
			s0.846,0.805,1.074,1.279S61.117,168.979,61.117,169.623z"/>
		<path fill="#E6E6E5" d="M71.254,173.5l-0.322-1.416h-0.117c-0.319,0.502-0.773,0.895-1.362,1.182s-1.261,0.43-2.017,0.43
			c-1.309,0-2.285-0.326-2.93-0.977s-0.967-1.637-0.967-2.959v-7.061h2.314v6.66c0,0.826,0.169,1.447,0.508,1.86
			s0.869,0.62,1.592,0.62c0.963,0,1.671-0.288,2.124-0.864s0.679-1.542,0.679-2.896v-5.381h2.305V173.5H71.254z"/>
		<path fill="#E6E6E5" d="M85.434,173.5h-2.305v-6.66c0-0.826-0.156-1.443-0.469-1.851s-0.801-0.61-1.465-0.61
			c-0.885,0-1.535,0.288-1.948,0.864s-0.62,1.534-0.62,2.876v5.381h-2.295v-10.801h1.797l0.322,1.416h0.117
			c0.299-0.514,0.734-0.912,1.304-1.191s1.196-0.42,1.88-0.42c1.66,0,2.76,0.566,3.301,1.699h0.156
			c0.319-0.533,0.768-0.951,1.348-1.25c0.58-0.299,1.243-0.449,1.992-0.449c1.289,0,2.229,0.326,2.817,0.977
			s0.884,1.645,0.884,2.979v7.041h-2.295v-6.66c0-0.826-0.158-1.443-0.474-1.851s-0.806-0.61-1.47-0.61
			c-0.893,0-1.544,0.278-1.958,0.835s-0.62,1.411-0.62,2.563V173.5z"/>
		<path fill="#E6E6E5" d="M104.555,173.5h-2.305v-6.66c0-0.826-0.156-1.443-0.469-1.851s-0.801-0.61-1.465-0.61
			c-0.886,0-1.535,0.288-1.948,0.864s-0.62,1.534-0.62,2.876v5.381h-2.295v-10.801h1.797l0.322,1.416h0.117
			c0.3-0.514,0.734-0.912,1.304-1.191s1.196-0.42,1.88-0.42c1.66,0,2.761,0.566,3.301,1.699h0.156
			c0.319-0.533,0.769-0.951,1.348-1.25s1.243-0.449,1.992-0.449c1.289,0,2.229,0.326,2.817,0.977s0.884,1.645,0.884,2.979v7.041
			h-2.295v-6.66c0-0.826-0.158-1.443-0.474-1.851s-0.806-0.61-1.47-0.61c-0.892,0-1.545,0.278-1.958,0.835s-0.62,1.411-0.62,2.563
			V173.5z"/>
		<path fill="#E6E6E5" d="M114.438,159.838c0-0.41,0.112-0.727,0.337-0.947s0.545-0.332,0.962-0.332
			c0.403,0,0.718,0.111,0.942,0.332s0.337,0.537,0.337,0.947c0,0.391-0.112,0.698-0.337,0.923s-0.539,0.337-0.942,0.337
			c-0.417,0-0.737-0.112-0.962-0.337S114.438,160.229,114.438,159.838z M116.869,173.5h-2.295v-10.801h2.295V173.5z"/>
		<path fill="#E6E6E5" d="M124.174,171.84c0.56,0,1.12-0.088,1.68-0.264v1.729c-0.254,0.111-0.581,0.203-0.981,0.278
			s-0.815,0.112-1.245,0.112c-2.175,0-3.262-1.146-3.262-3.438v-5.82h-1.475v-1.016l1.582-0.84l0.781-2.285h1.416v2.402h3.076v1.738
			h-3.076v5.781c0,0.553,0.139,0.962,0.415,1.226S123.725,171.84,124.174,171.84z"/>
		<path fill="#E6E6E5" d="M142.123,173.5h-9.678v-1.738l3.682-3.701c1.087-1.113,1.809-1.902,2.163-2.368s0.613-0.903,0.776-1.313
			s0.244-0.85,0.244-1.318c0-0.645-0.193-1.152-0.581-1.523s-0.923-0.557-1.606-0.557c-0.547,0-1.076,0.102-1.587,0.303
			s-1.102,0.566-1.772,1.094l-1.24-1.514c0.794-0.67,1.565-1.146,2.314-1.426s1.546-0.42,2.393-0.42c1.328,0,2.393,0.347,3.193,1.04
			s1.201,1.626,1.201,2.798c0,0.645-0.115,1.256-0.347,1.836s-0.586,1.177-1.064,1.792s-1.274,1.446-2.388,2.495l-2.48,2.402v0.098
			h6.777V173.5z"/>
		<path fill="#E6E6E5" d="M153.539,166.361c0,2.48-0.398,4.322-1.196,5.527s-2.017,1.807-3.657,1.807
			c-1.589,0-2.793-0.621-3.613-1.865s-1.23-3.066-1.23-5.469c0-2.52,0.398-4.377,1.196-5.571s2.014-1.792,3.647-1.792
			c1.595,0,2.803,0.625,3.623,1.875S153.539,163.953,153.539,166.361z M146.166,166.361c0,1.947,0.2,3.336,0.601,4.17
			s1.04,1.25,1.919,1.25s1.521-0.424,1.929-1.27s0.61-2.23,0.61-4.15c0-1.914-0.203-3.299-0.61-4.155s-1.05-1.284-1.929-1.284
			s-1.519,0.42-1.919,1.26S146.166,164.414,146.166,166.361z"/>
		<path fill="#E6E6E5" d="M162.016,173.5h-2.295v-9.219c0-1.1,0.026-1.973,0.078-2.617c-0.149,0.156-0.334,0.328-0.552,0.518
			s-0.949,0.787-2.192,1.797l-1.152-1.455l4.199-3.301h1.914V173.5z"/>
		<path fill="#E6E6E5" d="M176.879,170.385h-1.924v3.115h-2.236v-3.115h-6.523v-1.768l6.523-9.434h2.236v9.297h1.924V170.385z
			 M172.719,168.48v-3.584c0-1.275,0.032-2.32,0.098-3.135h-0.078c-0.183,0.43-0.469,0.951-0.859,1.562l-3.545,5.156H172.719z"/>
	</g>
</g>
</svg>
