<?xml version="1.0" encoding="utf-8"?>
<!-- Generator: Adobe Illustrator 16.0.0, SVG Export Plug-In . SVG Version: 6.00 Build 0)  -->
<!DOCTYPE svg PUBLIC "-//W3C//DTD SVG 1.1//EN" "http://www.w3.org/Graphics/SVG/1.1/DTD/svg11.dtd">
<svg version="1.1" id="Layer_1" xmlns="http://www.w3.org/2000/svg" xmlns:xlink="http://www.w3.org/1999/xlink" x="0px" y="0px"
	 width="185px" height="188px" viewBox="0 0 185 188" enable-background="new 0 0 185 188" xml:space="preserve">
<g>
	
		<radialGradient id="SVGID_1_" cx="-6695.3662" cy="3978.9062" r="20.1129" gradientTransform="matrix(0.498 0 0 -0.498 3351.916 2031.3281)" gradientUnits="userSpaceOnUse">
		<stop  offset="0" style="stop-color:#FFCF4F"/>
		<stop  offset="1" style="stop-color:#F4C236"/>
	</radialGradient>
	<path fill="url(#SVGID_1_)" d="M8.91,61h6.791c1.607,0,3.604-1.128,4.432-2.511l5.72-9.519c0.677-1.396,0.653-3.426-0.119-4.713
		l-3.378-5.592L8.91,61z"/>
	
		<radialGradient id="SVGID_2_" cx="-6707.418" cy="3989.1211" r="27.6567" gradientTransform="matrix(0.498 0 0 -0.498 3351.916 2031.3281)" gradientUnits="userSpaceOnUse">
		<stop  offset="0" style="stop-color:#08A960"/>
		<stop  offset="1" style="stop-color:#07914B"/>
	</radialGradient>
	<path fill="url(#SVGID_2_)" d="M16.209,33.514L1.108,58.763C0.524,60.011,1.131,61,2.629,61H8.91l13.446-22.335L16.21,28.492
		C17.039,29.87,17.039,32.13,16.209,33.514"/>
	
		<radialGradient id="SVGID_3_" cx="-6697.9673" cy="4028.8018" r="40.5385" gradientTransform="matrix(0.498 0 0 -0.498 3351.916 2031.3281)" gradientUnits="userSpaceOnUse">
		<stop  offset="0" style="stop-color:#567FC0"/>
		<stop  offset="1" style="stop-color:#557FC0"/>
	</radialGradient>
	<path fill="url(#SVGID_3_)" d="M2.629,1C1.015,1,0.375,2.133,1.205,3.511l24.529,40.745c0.772,1.288,0.795,3.317,0.119,4.713
		l5.963-9.925L8.914,1H2.629z"/>
	
		<radialGradient id="SVGID_4_" cx="-6685.9023" cy="4038.7656" r="33.0578" gradientTransform="matrix(0.498 0 0 -0.498 3351.916 2031.3281)" gradientUnits="userSpaceOnUse">
		<stop  offset="0" style="stop-color:#E14C40"/>
		<stop  offset="1" style="stop-color:#CD392D"/>
	</radialGradient>
	<path fill="url(#SVGID_4_)" d="M8.914,1l22.903,38.045l3.321-5.53c0.83-1.385,0.83-3.645,0-5.023L20.133,3.511
		C19.305,2.133,17.308,1,15.701,1H8.914z"/>
	<g>
		<path fill="#4E4E4E" d="M56.354,26.57l-3.357-11.826h-0.102c0.158,2.014,0.236,3.579,0.236,4.694v7.131h-3.931V10.151h5.907
			l3.426,11.657h0.09l3.357-11.657h5.918V26.57h-4.076v-7.199c0-0.375,0.006-0.79,0.017-1.247c0.012-0.457,0.062-1.576,0.151-3.358
			h-0.101L60.577,26.57H56.354z"/>
		<path fill="#4E4E4E" d="M77.322,26.794c-2.119,0-3.764-0.563-4.936-1.69c-1.172-1.126-1.758-2.73-1.758-4.812
			c0-2.149,0.543-3.798,1.628-4.947c1.086-1.149,2.636-1.724,4.65-1.724c1.916,0,3.396,0.5,4.441,1.5
			c1.044,0.999,1.566,2.438,1.566,4.318v1.954h-7.85c0.029,0.711,0.29,1.269,0.78,1.673s1.158,0.606,2.005,0.606
			c0.771,0,1.48-0.073,2.128-0.219c0.647-0.146,1.35-0.395,2.105-0.747v3.156c-0.688,0.352-1.4,0.595-2.134,0.73
			S78.341,26.794,77.322,26.794z M77.063,16.608c-0.516,0-0.948,0.163-1.297,0.489c-0.348,0.325-0.552,0.836-0.611,1.533h3.773
			c-0.016-0.614-0.189-1.104-0.522-1.471S77.626,16.608,77.063,16.608z"/>
		<path fill="#4E4E4E" d="M93.427,26.57v-6.94c0-0.846-0.122-1.484-0.365-1.915c-0.243-0.43-0.634-0.646-1.173-0.646
			c-0.742,0-1.277,0.296-1.606,0.887S89.788,19.562,89.788,21v5.57h-4.392V13.846h3.313l0.55,1.572h0.259
			c0.374-0.599,0.893-1.048,1.556-1.348c0.662-0.299,1.424-0.449,2.285-0.449c1.407,0,2.503,0.408,3.285,1.224
			s1.174,1.965,1.174,3.448v8.277H93.427z"/>
		<path fill="#4E4E4E" d="M109.104,26.57l-0.843-1.685h-0.09c-0.591,0.734-1.193,1.235-1.808,1.505s-1.407,0.404-2.381,0.404
			c-1.198,0-2.142-0.359-2.83-1.078s-1.033-1.729-1.033-3.032c0-1.355,0.472-2.364,1.415-3.026c0.943-0.663,2.31-1.035,4.1-1.118
			l2.122-0.067v-0.18c0-1.048-0.517-1.572-1.55-1.572c-0.929,0-2.107,0.314-3.537,0.943l-1.27-2.897
			c1.482-0.764,3.354-1.146,5.615-1.146c1.632,0,2.896,0.404,3.79,1.213s1.343,1.939,1.343,3.392v8.344H109.104z M105.848,23.695
			c0.531,0,0.986-0.168,1.364-0.505s0.567-0.775,0.567-1.314v-0.988l-1.011,0.045c-1.445,0.052-2.167,0.584-2.167,1.595
			C104.602,23.306,105.017,23.695,105.848,23.695z"/>
		<path fill="#4E4E4E" d="M121.368,23.324c0.592,0,1.299-0.146,2.122-0.438v3.201c-0.591,0.254-1.154,0.436-1.689,0.544
			c-0.535,0.109-1.162,0.163-1.881,0.163c-1.476,0-2.539-0.361-3.189-1.084c-0.652-0.722-0.978-1.832-0.978-3.33v-5.245h-1.538
			v-1.786l1.953-1.381l1.135-2.673h2.875v2.549h3.122v3.291h-3.122v4.953C120.178,22.913,120.574,23.324,121.368,23.324z"/>
		<path fill="#4E4E4E" d="M138.54,16.957h7.086v8.85c-1.924,0.659-4.039,0.988-6.346,0.988c-2.53,0-4.486-0.734-5.867-2.201
			c-1.382-1.467-2.072-3.56-2.072-6.278c0-2.65,0.756-4.713,2.269-6.188s3.631-2.212,6.356-2.212c1.033,0,2.009,0.097,2.926,0.292
			s1.716,0.442,2.397,0.741l-1.403,3.481c-1.184-0.584-2.482-0.876-3.897-0.876c-1.295,0-2.297,0.421-3.004,1.263
			c-0.708,0.843-1.062,2.046-1.062,3.611c0,1.535,0.32,2.705,0.96,3.509c0.641,0.805,1.563,1.208,2.769,1.208
			c0.659,0,1.266-0.063,1.819-0.191v-2.572h-2.931V16.957z"/>
		<path fill="#4E4E4E" d="M162.909,18.012c0,2.74-0.754,4.852-2.263,6.334s-3.629,2.224-6.362,2.224h-5.312V10.151h5.683
			c2.636,0,4.67,0.674,6.104,2.021S162.909,15.467,162.909,18.012z M158.306,18.169c0-1.505-0.298-2.621-0.894-3.347
			c-0.595-0.726-1.499-1.089-2.712-1.089h-1.291v9.198h0.988c1.348,0,2.336-0.391,2.965-1.174
			C157.991,20.975,158.306,19.779,158.306,18.169z"/>
		<path fill="#4E4E4E" d="M172.444,16.957h7.086v8.85c-1.924,0.659-4.039,0.988-6.346,0.988c-2.53,0-4.486-0.734-5.867-2.201
			c-1.382-1.467-2.072-3.56-2.072-6.278c0-2.65,0.756-4.713,2.269-6.188s3.631-2.212,6.356-2.212c1.033,0,2.009,0.097,2.926,0.292
			s1.716,0.442,2.397,0.741l-1.403,3.481c-1.184-0.584-2.482-0.876-3.897-0.876c-1.295,0-2.297,0.421-3.004,1.263
			c-0.708,0.843-1.062,2.046-1.062,3.611c0,1.535,0.32,2.705,0.96,3.509c0.641,0.805,1.563,1.208,2.769,1.208
			c0.659,0,1.266-0.063,1.819-0.191v-2.572h-2.931V16.957z"/>
		<path fill="#4E4E4E" d="M58.05,43.499c0,1.333-0.482,2.379-1.445,3.138c-0.965,0.759-2.294,1.138-3.989,1.138
			s-3.083-0.263-4.163-0.79v-2.317c0.684,0.321,1.41,0.574,2.179,0.759c0.77,0.185,1.485,0.277,2.148,0.277
			c0.971,0,1.687-0.185,2.148-0.554c0.461-0.369,0.692-0.865,0.692-1.487c0-0.561-0.213-1.036-0.637-1.425s-1.299-0.851-2.625-1.384
			c-1.367-0.554-2.331-1.186-2.891-1.897c-0.562-0.711-0.842-1.565-0.842-2.563c0-1.251,0.444-2.235,1.334-2.953
			c0.888-0.718,2.081-1.077,3.578-1.077c1.436,0,2.864,0.314,4.286,0.943l-0.779,2c-1.333-0.561-2.522-0.841-3.568-0.841
			c-0.793,0-1.395,0.173-1.805,0.518c-0.41,0.346-0.615,0.802-0.615,1.369c0,0.39,0.082,0.723,0.246,1
			c0.164,0.276,0.434,0.538,0.81,0.784s1.053,0.571,2.031,0.974c1.1,0.458,1.906,0.885,2.42,1.282
			c0.512,0.396,0.888,0.844,1.127,1.343S58.05,42.822,58.05,43.499z"/>
		<path fill="#4E4E4E" d="M68.693,47.57l-0.338-1.487h-0.123c-0.336,0.526-0.812,0.94-1.431,1.241
			c-0.619,0.301-1.325,0.451-2.118,0.451c-1.373,0-2.398-0.342-3.076-1.025c-0.676-0.684-1.015-1.719-1.015-3.107v-7.414h2.431
			v6.993c0,0.868,0.177,1.52,0.533,1.953c0.354,0.435,0.912,0.651,1.671,0.651c1.012,0,1.755-0.303,2.23-0.907
			c0.475-0.605,0.712-1.619,0.712-3.041v-5.65h2.42V47.57H68.693z"/>
		<path fill="#4E4E4E" d="M83.582,47.57h-2.42v-6.993c0-0.868-0.164-1.516-0.492-1.943c-0.328-0.427-0.841-0.641-1.538-0.641
			c-0.93,0-1.611,0.303-2.046,0.907c-0.434,0.605-0.65,1.612-0.65,3.02v5.65h-2.41V36.229h1.887l0.338,1.487h0.123
			c0.314-0.54,0.771-0.957,1.369-1.251c0.599-0.294,1.256-0.441,1.975-0.441c1.742,0,2.897,0.595,3.465,1.784h0.164
			c0.335-0.561,0.807-0.998,1.416-1.312c0.607-0.314,1.305-0.472,2.092-0.472c1.354,0,2.339,0.342,2.958,1.025
			c0.618,0.684,0.928,1.726,0.928,3.127v7.393H88.33v-6.993c0-0.868-0.166-1.516-0.498-1.943c-0.331-0.427-0.846-0.641-1.543-0.641
			c-0.937,0-1.622,0.292-2.056,0.877c-0.435,0.584-0.651,1.481-0.651,2.691V47.57z"/>
		<path fill="#4E4E4E" d="M103.659,47.57h-2.42v-6.993c0-0.868-0.164-1.516-0.492-1.943c-0.328-0.427-0.841-0.641-1.538-0.641
			c-0.93,0-1.611,0.303-2.046,0.907c-0.434,0.605-0.65,1.612-0.65,3.02v5.65h-2.41V36.229h1.887l0.338,1.487h0.123
			c0.314-0.54,0.771-0.957,1.369-1.251c0.599-0.294,1.256-0.441,1.975-0.441c1.742,0,2.897,0.595,3.465,1.784h0.164
			c0.335-0.561,0.807-0.998,1.416-1.312c0.607-0.314,1.305-0.472,2.092-0.472c1.354,0,2.339,0.342,2.958,1.025
			c0.618,0.684,0.928,1.726,0.928,3.127v7.393h-2.409v-6.993c0-0.868-0.166-1.516-0.498-1.943c-0.331-0.427-0.846-0.641-1.543-0.641
			c-0.937,0-1.622,0.292-2.056,0.877c-0.435,0.584-0.651,1.481-0.651,2.691V47.57z"/>
		<path fill="#4E4E4E" d="M114.036,33.225c0-0.431,0.118-0.762,0.354-0.995c0.236-0.232,0.572-0.349,1.011-0.349
			c0.423,0,0.753,0.116,0.989,0.349c0.235,0.232,0.354,0.564,0.354,0.995c0,0.41-0.118,0.733-0.354,0.969
			c-0.236,0.235-0.566,0.354-0.989,0.354c-0.438,0-0.774-0.118-1.011-0.354C114.154,33.958,114.036,33.635,114.036,33.225z
			 M116.59,47.57h-2.41V36.229h2.41V47.57z"/>
		<path fill="#4E4E4E" d="M124.259,45.827c0.588,0,1.176-0.092,1.764-0.277v1.815c-0.267,0.116-0.61,0.213-1.03,0.292
			c-0.421,0.079-0.856,0.118-1.308,0.118c-2.283,0-3.425-1.203-3.425-3.609v-6.111h-1.548v-1.066l1.66-0.882l0.82-2.399h1.487v2.522
			h3.229v1.825h-3.229v6.07c0,0.581,0.146,1.01,0.436,1.287C123.406,45.688,123.787,45.827,124.259,45.827z"/>
		<path fill="#4E4E4E" d="M143.105,47.57h-10.161v-1.825l3.866-3.886c1.141-1.169,1.898-1.998,2.271-2.487
			c0.373-0.488,0.645-0.948,0.815-1.379s0.256-0.892,0.256-1.384c0-0.677-0.203-1.21-0.609-1.6c-0.407-0.39-0.969-0.584-1.688-0.584
			c-0.574,0-1.129,0.106-1.666,0.318c-0.536,0.212-1.157,0.595-1.861,1.148l-1.302-1.589c0.834-0.704,1.644-1.203,2.431-1.497
			c0.785-0.294,1.623-0.441,2.512-0.441c1.395,0,2.512,0.364,3.354,1.092c0.84,0.728,1.261,1.707,1.261,2.938
			c0,0.677-0.121,1.319-0.364,1.928c-0.242,0.608-0.615,1.235-1.117,1.882c-0.503,0.646-1.338,1.519-2.508,2.62l-2.604,2.522v0.103
			h7.115V47.57z"/>
		<path fill="#4E4E4E" d="M155.093,40.074c0,2.604-0.418,4.539-1.256,5.804c-0.837,1.265-2.117,1.897-3.84,1.897
			c-1.668,0-2.933-0.653-3.794-1.958s-1.292-3.22-1.292-5.742c0-2.646,0.419-4.595,1.256-5.85c0.838-1.254,2.114-1.881,3.83-1.881
			c1.675,0,2.943,0.656,3.805,1.969S155.093,37.545,155.093,40.074z M147.352,40.074c0,2.044,0.21,3.503,0.631,4.378
			c0.42,0.875,1.092,1.312,2.015,1.312s1.598-0.444,2.025-1.333c0.427-0.889,0.641-2.341,0.641-4.358
			c0-2.01-0.214-3.464-0.641-4.363c-0.428-0.899-1.103-1.349-2.025-1.349s-1.595,0.441-2.015,1.323
			C147.562,36.567,147.352,38.03,147.352,40.074z"/>
		<path fill="#4E4E4E" d="M163.993,47.57h-2.41v-9.68c0-1.155,0.027-2.071,0.082-2.748c-0.157,0.164-0.35,0.345-0.579,0.543
			c-0.229,0.198-0.996,0.827-2.302,1.887l-1.21-1.528l4.409-3.466h2.01V47.57z"/>
		<path fill="#4E4E4E" d="M179.599,44.299h-2.02v3.271h-2.348v-3.271h-6.85v-1.856l6.85-9.905h2.348v9.762h2.02V44.299z
			 M175.231,42.299v-3.763c0-1.34,0.033-2.437,0.102-3.292h-0.082c-0.191,0.451-0.492,0.998-0.902,1.641l-3.722,5.414H175.231z"/>
	</g>
</g>
<g>
	
		<radialGradient id="SVGID_5_" cx="-6695.3662" cy="3852.4014" r="20.1129" gradientTransform="matrix(0.498 0 0 -0.498 3351.916 2031.3281)" gradientUnits="userSpaceOnUse">
		<stop  offset="0" style="stop-color:#CCCCCC"/>
		<stop  offset="1" style="stop-color:#C0C0C0"/>
	</radialGradient>
	<path fill="url(#SVGID_5_)" d="M8.91,124h6.791c1.607,0,3.604-1.128,4.432-2.512l5.72-9.518c0.677-1.396,0.653-3.427-0.119-4.714
		l-3.378-5.592L8.91,124z"/>
	
		<radialGradient id="SVGID_6_" cx="-6707.418" cy="3862.6143" r="27.6567" gradientTransform="matrix(0.498 0 0 -0.498 3351.916 2031.3281)" gradientUnits="userSpaceOnUse">
		<stop  offset="0" style="stop-color:#A0A0A0"/>
		<stop  offset="1" style="stop-color:#7B7B7B"/>
	</radialGradient>
	<path fill="url(#SVGID_6_)" d="M16.209,96.514l-15.101,25.25C0.524,123.012,1.131,124,2.629,124H8.91l13.446-22.335L16.21,91.492
		C17.039,92.87,17.039,95.13,16.209,96.514"/>
	
		<radialGradient id="SVGID_7_" cx="-6697.9668" cy="3902.2959" r="40.5378" gradientTransform="matrix(0.498 0 0 -0.498 3351.916 2031.3281)" gradientUnits="userSpaceOnUse">
		<stop  offset="0" style="stop-color:#848484"/>
		<stop  offset="1" style="stop-color:#838383"/>
	</radialGradient>
	<path fill="url(#SVGID_7_)" d="M2.629,64c-1.613,0-2.254,1.133-1.424,2.511l24.529,40.745c0.772,1.288,0.795,3.316,0.119,4.713
		l5.963-9.925L8.914,64H2.629z"/>
	
		<radialGradient id="SVGID_8_" cx="-6685.9023" cy="3912.2598" r="33.0573" gradientTransform="matrix(0.498 0 0 -0.498 3351.916 2031.3281)" gradientUnits="userSpaceOnUse">
		<stop  offset="0" style="stop-color:#626262"/>
		<stop  offset="1" style="stop-color:#474747"/>
	</radialGradient>
	<path fill="url(#SVGID_8_)" d="M8.914,64l22.903,38.045l3.321-5.529c0.83-1.386,0.83-3.646,0-5.023l-15.004-24.98
		C19.305,65.133,17.308,64,15.701,64H8.914z"/>
	<g>
		<path fill="#4E4E4E" d="M57.354,89.57l-3.357-11.826h-0.102c0.158,2.014,0.236,3.579,0.236,4.694v7.131h-3.931V73.151h5.907
			l3.426,11.657h0.09l3.357-11.657h5.918V89.57h-4.076v-7.199c0-0.375,0.006-0.79,0.017-1.247c0.012-0.457,0.062-1.576,0.151-3.358
			h-0.101L61.577,89.57H57.354z"/>
		<path fill="#4E4E4E" d="M78.322,89.794c-2.119,0-3.764-0.563-4.936-1.69c-1.172-1.126-1.758-2.73-1.758-4.812
			c0-2.149,0.543-3.798,1.628-4.947c1.086-1.149,2.636-1.724,4.65-1.724c1.916,0,3.396,0.5,4.441,1.5
			c1.044,0.999,1.566,2.438,1.566,4.318v1.954h-7.85c0.029,0.711,0.29,1.269,0.78,1.673s1.158,0.606,2.005,0.606
			c0.771,0,1.48-0.073,2.128-0.219c0.647-0.146,1.35-0.395,2.105-0.747v3.156c-0.688,0.352-1.4,0.595-2.134,0.73
			S79.341,89.794,78.322,89.794z M78.063,79.608c-0.516,0-0.948,0.163-1.297,0.489c-0.348,0.325-0.552,0.836-0.611,1.533h3.773
			c-0.016-0.614-0.189-1.104-0.522-1.471S78.626,79.608,78.063,79.608z"/>
		<path fill="#4E4E4E" d="M94.427,89.57v-6.94c0-0.846-0.122-1.484-0.365-1.915c-0.243-0.43-0.634-0.646-1.173-0.646
			c-0.742,0-1.277,0.296-1.606,0.887S90.788,82.562,90.788,84v5.57h-4.392V76.846h3.313l0.55,1.572h0.259
			c0.374-0.599,0.893-1.048,1.556-1.348c0.662-0.299,1.424-0.449,2.285-0.449c1.407,0,2.503,0.408,3.285,1.224
			s1.174,1.965,1.174,3.448v8.277H94.427z"/>
		<path fill="#4E4E4E" d="M110.104,89.57l-0.843-1.685h-0.09c-0.591,0.734-1.193,1.235-1.808,1.505s-1.407,0.404-2.381,0.404
			c-1.198,0-2.142-0.359-2.83-1.078s-1.033-1.729-1.033-3.032c0-1.355,0.472-2.364,1.415-3.026c0.943-0.663,2.31-1.035,4.1-1.118
			l2.122-0.067v-0.18c0-1.048-0.517-1.572-1.55-1.572c-0.929,0-2.107,0.314-3.537,0.943l-1.27-2.897
			c1.482-0.764,3.354-1.146,5.615-1.146c1.632,0,2.896,0.404,3.79,1.213s1.343,1.939,1.343,3.392v8.344H110.104z M106.848,86.695
			c0.531,0,0.986-0.168,1.364-0.505s0.567-0.775,0.567-1.314v-0.988l-1.011,0.045c-1.445,0.052-2.167,0.584-2.167,1.595
			C105.602,86.306,106.017,86.695,106.848,86.695z"/>
		<path fill="#4E4E4E" d="M122.368,86.324c0.592,0,1.299-0.146,2.122-0.438v3.201c-0.591,0.254-1.154,0.436-1.689,0.544
			c-0.535,0.109-1.162,0.163-1.881,0.163c-1.476,0-2.539-0.361-3.189-1.084c-0.652-0.722-0.978-1.832-0.978-3.33v-5.245h-1.538
			v-1.786l1.953-1.381l1.135-2.673h2.875v2.549h3.122v3.291h-3.122v4.953C121.178,85.913,121.574,86.324,122.368,86.324z"/>
		<path fill="#4E4E4E" d="M139.54,79.957h7.086v8.85c-1.924,0.659-4.039,0.988-6.346,0.988c-2.53,0-4.486-0.734-5.867-2.201
			c-1.382-1.467-2.072-3.56-2.072-6.278c0-2.65,0.756-4.713,2.269-6.188s3.631-2.212,6.356-2.212c1.033,0,2.009,0.097,2.926,0.292
			s1.716,0.442,2.397,0.741l-1.403,3.481c-1.184-0.584-2.482-0.876-3.897-0.876c-1.295,0-2.297,0.421-3.004,1.263
			c-0.708,0.843-1.062,2.046-1.062,3.611c0,1.535,0.32,2.705,0.96,3.509c0.641,0.805,1.563,1.208,2.769,1.208
			c0.659,0,1.266-0.063,1.819-0.191v-2.572h-2.931V79.957z"/>
		<path fill="#4E4E4E" d="M163.909,81.012c0,2.74-0.754,4.852-2.263,6.334s-3.629,2.224-6.362,2.224h-5.312V73.151h5.683
			c2.636,0,4.67,0.674,6.104,2.021S163.909,78.467,163.909,81.012z M159.306,81.169c0-1.505-0.298-2.621-0.894-3.347
			c-0.595-0.726-1.499-1.089-2.712-1.089h-1.291v9.198h0.988c1.348,0,2.336-0.391,2.965-1.174
			C158.991,83.975,159.306,82.779,159.306,81.169z"/>
		<path fill="#4E4E4E" d="M173.444,79.957h7.086v8.85c-1.924,0.659-4.039,0.988-6.346,0.988c-2.53,0-4.486-0.734-5.867-2.201
			c-1.382-1.467-2.072-3.56-2.072-6.278c0-2.65,0.756-4.713,2.269-6.188s3.631-2.212,6.356-2.212c1.033,0,2.009,0.097,2.926,0.292
			s1.716,0.442,2.397,0.741l-1.403,3.481c-1.184-0.584-2.482-0.876-3.897-0.876c-1.295,0-2.297,0.421-3.004,1.263
			c-0.708,0.843-1.062,2.046-1.062,3.611c0,1.535,0.32,2.705,0.96,3.509c0.641,0.805,1.563,1.208,2.769,1.208
			c0.659,0,1.266-0.063,1.819-0.191v-2.572h-2.931V79.957z"/>
		<path fill="#4E4E4E" d="M59.05,106.499c0,1.333-0.482,2.379-1.445,3.138c-0.965,0.759-2.294,1.139-3.989,1.139
			s-3.083-0.264-4.163-0.79v-2.317c0.684,0.321,1.41,0.574,2.179,0.759c0.77,0.185,1.485,0.276,2.148,0.276
			c0.971,0,1.687-0.184,2.148-0.553c0.461-0.369,0.692-0.865,0.692-1.487c0-0.561-0.213-1.036-0.637-1.425
			c-0.424-0.391-1.299-0.852-2.625-1.385c-1.367-0.554-2.331-1.186-2.891-1.896c-0.562-0.711-0.842-1.566-0.842-2.564
			c0-1.25,0.444-2.234,1.334-2.953c0.888-0.717,2.081-1.076,3.578-1.076c1.436,0,2.864,0.314,4.286,0.943l-0.779,2
			c-1.333-0.561-2.522-0.842-3.568-0.842c-0.793,0-1.395,0.174-1.805,0.518c-0.41,0.346-0.615,0.803-0.615,1.369
			c0,0.391,0.082,0.723,0.246,1s0.434,0.539,0.81,0.785s1.053,0.57,2.031,0.974c1.1,0.458,1.906,0.886,2.42,1.282
			c0.512,0.396,0.888,0.844,1.127,1.343S59.05,105.822,59.05,106.499z"/>
		<path fill="#4E4E4E" d="M69.693,110.57l-0.338-1.487h-0.123c-0.336,0.526-0.812,0.94-1.431,1.241
			c-0.619,0.301-1.325,0.451-2.118,0.451c-1.373,0-2.398-0.342-3.076-1.025c-0.676-0.684-1.015-1.72-1.015-3.107v-7.414h2.431v6.994
			c0,0.867,0.177,1.52,0.533,1.953c0.354,0.434,0.912,0.65,1.671,0.65c1.012,0,1.755-0.303,2.23-0.906
			c0.475-0.605,0.712-1.619,0.712-3.041v-5.65h2.42v11.342H69.693z"/>
		<path fill="#4E4E4E" d="M84.582,110.57h-2.42v-6.994c0-0.867-0.164-1.516-0.492-1.943c-0.328-0.426-0.841-0.641-1.538-0.641
			c-0.93,0-1.611,0.303-2.046,0.908c-0.434,0.605-0.65,1.611-0.65,3.02v5.65h-2.41V99.229h1.887l0.338,1.487h0.123
			c0.314-0.54,0.771-0.957,1.369-1.251c0.599-0.294,1.256-0.441,1.975-0.441c1.742,0,2.897,0.596,3.465,1.785h0.164
			c0.335-0.561,0.807-0.998,1.416-1.312c0.607-0.314,1.305-0.473,2.092-0.473c1.354,0,2.339,0.342,2.958,1.025
			c0.618,0.684,0.928,1.727,0.928,3.128v7.394H89.33v-6.994c0-0.867-0.166-1.516-0.498-1.943c-0.331-0.426-0.846-0.641-1.543-0.641
			c-0.937,0-1.622,0.293-2.056,0.877c-0.435,0.584-0.651,1.482-0.651,2.691V110.57z"/>
		<path fill="#4E4E4E" d="M104.659,110.57h-2.42v-6.994c0-0.867-0.164-1.516-0.492-1.943c-0.328-0.426-0.841-0.641-1.538-0.641
			c-0.93,0-1.611,0.303-2.046,0.908c-0.434,0.605-0.65,1.611-0.65,3.02v5.65h-2.41V99.229h1.887l0.338,1.487h0.123
			c0.314-0.54,0.771-0.957,1.369-1.251c0.599-0.294,1.256-0.441,1.975-0.441c1.742,0,2.897,0.596,3.465,1.785h0.164
			c0.335-0.561,0.807-0.998,1.416-1.312c0.607-0.314,1.305-0.473,2.092-0.473c1.354,0,2.339,0.342,2.958,1.025
			c0.618,0.684,0.928,1.727,0.928,3.128v7.394h-2.409v-6.994c0-0.867-0.166-1.516-0.498-1.943c-0.331-0.426-0.846-0.641-1.543-0.641
			c-0.937,0-1.622,0.293-2.056,0.877c-0.435,0.584-0.651,1.482-0.651,2.691V110.57z"/>
		<path fill="#4E4E4E" d="M115.036,96.225c0-0.431,0.118-0.762,0.354-0.994c0.236-0.232,0.572-0.35,1.011-0.35
			c0.423,0,0.753,0.117,0.989,0.35c0.235,0.232,0.354,0.563,0.354,0.994c0,0.41-0.118,0.732-0.354,0.969
			c-0.236,0.236-0.566,0.354-0.989,0.354c-0.438,0-0.774-0.117-1.011-0.354C115.154,96.957,115.036,96.635,115.036,96.225z
			 M117.59,110.57h-2.41V99.229h2.41V110.57z"/>
		<path fill="#4E4E4E" d="M125.259,108.826c0.588,0,1.176-0.092,1.764-0.276v1.815c-0.267,0.115-0.61,0.213-1.03,0.291
			c-0.421,0.079-0.856,0.119-1.308,0.119c-2.283,0-3.425-1.203-3.425-3.609v-6.111h-1.548v-1.066l1.66-0.883l0.82-2.398h1.487v2.521
			h3.229v1.826h-3.229v6.07c0,0.58,0.146,1.01,0.436,1.287C124.406,108.688,124.787,108.826,125.259,108.826z"/>
		<path fill="#4E4E4E" d="M144.105,110.57h-10.161v-1.826l3.866-3.886c1.141-1.169,1.898-1.997,2.271-2.487
			c0.373-0.488,0.645-0.947,0.815-1.379c0.171-0.43,0.256-0.892,0.256-1.384c0-0.677-0.203-1.21-0.609-1.6
			c-0.407-0.39-0.969-0.585-1.688-0.585c-0.574,0-1.129,0.106-1.666,0.318c-0.536,0.212-1.157,0.595-1.861,1.148l-1.302-1.59
			c0.834-0.703,1.644-1.203,2.431-1.496c0.785-0.295,1.623-0.441,2.512-0.441c1.395,0,2.512,0.363,3.354,1.092
			c0.84,0.729,1.261,1.707,1.261,2.938c0,0.678-0.121,1.32-0.364,1.928c-0.242,0.609-0.615,1.236-1.117,1.883
			c-0.503,0.645-1.338,1.519-2.508,2.619l-2.604,2.522v0.103h7.115V110.57z"/>
		<path fill="#4E4E4E" d="M156.093,103.074c0,2.604-0.418,4.539-1.256,5.804c-0.837,1.265-2.117,1.897-3.84,1.897
			c-1.668,0-2.933-0.653-3.794-1.959s-1.292-3.22-1.292-5.742c0-2.646,0.419-4.596,1.256-5.85c0.838-1.254,2.114-1.882,3.83-1.882
			c1.675,0,2.943,0.656,3.805,1.969S156.093,100.545,156.093,103.074z M148.352,103.074c0,2.044,0.21,3.504,0.631,4.379
			c0.42,0.875,1.092,1.312,2.015,1.312s1.598-0.445,2.025-1.334c0.427-0.889,0.641-2.341,0.641-4.357
			c0-2.01-0.214-3.464-0.641-4.363c-0.428-0.898-1.103-1.348-2.025-1.348s-1.595,0.44-2.015,1.322
			C148.562,99.567,148.352,101.03,148.352,103.074z"/>
		<path fill="#4E4E4E" d="M164.993,110.57h-2.41v-9.68c0-1.156,0.027-2.072,0.082-2.748c-0.157,0.164-0.35,0.345-0.579,0.543
			c-0.229,0.198-0.996,0.827-2.302,1.887l-1.21-1.527l4.409-3.467h2.01V110.57z"/>
		<path fill="#4E4E4E" d="M180.599,107.299h-2.02v3.271h-2.348v-3.271h-6.85v-1.855l6.85-9.906h2.348v9.762h2.02V107.299z
			 M176.231,105.299v-3.763c0-1.34,0.033-2.437,0.102-3.292h-0.082c-0.191,0.451-0.492,0.998-0.902,1.641l-3.722,5.414H176.231z"/>
	</g>
</g>
<g>
	
		<radialGradient id="SVGID_9_" cx="-6695.0488" cy="3725.8945" r="20.1124" gradientTransform="matrix(0.498 0 0 -0.498 3351.916 2031.3281)" gradientUnits="userSpaceOnUse">
		<stop  offset="0" style="stop-color:#FFCF4F"/>
		<stop  offset="1" style="stop-color:#F4C236"/>
	</radialGradient>
	<path fill="url(#SVGID_9_)" d="M9.068,187h6.791c1.607,0,3.604-1.128,4.432-2.512l5.72-9.518c0.677-1.396,0.653-3.427-0.119-4.714
		l-3.378-5.592L9.068,187z"/>
	
		<radialGradient id="SVGID_10_" cx="-6707.0996" cy="3736.1084" r="27.6564" gradientTransform="matrix(0.498 0 0 -0.498 3351.916 2031.3281)" gradientUnits="userSpaceOnUse">
		<stop  offset="0" style="stop-color:#08A960"/>
		<stop  offset="1" style="stop-color:#07914B"/>
	</radialGradient>
	<path fill="url(#SVGID_10_)" d="M16.368,159.514l-15.102,25.25C0.683,186.012,1.289,187,2.787,187h6.281l13.446-22.335
		l-6.146-10.173C17.197,155.87,17.197,158.13,16.368,159.514"/>
	
		<radialGradient id="SVGID_11_" cx="-6697.6494" cy="3775.79" r="40.5378" gradientTransform="matrix(0.498 0 0 -0.498 3351.916 2031.3281)" gradientUnits="userSpaceOnUse">
		<stop  offset="0" style="stop-color:#567FC0"/>
		<stop  offset="1" style="stop-color:#557FC0"/>
	</radialGradient>
	<path fill="url(#SVGID_11_)" d="M2.787,127c-1.613,0-2.254,1.133-1.424,2.512l24.529,40.744c0.772,1.288,0.795,3.316,0.119,4.713
		l5.963-9.925L9.072,127H2.787z"/>
	
		<radialGradient id="SVGID_12_" cx="-6685.585" cy="3785.7539" r="33.0572" gradientTransform="matrix(0.498 0 0 -0.498 3351.916 2031.3281)" gradientUnits="userSpaceOnUse">
		<stop  offset="0" style="stop-color:#E14C40"/>
		<stop  offset="1" style="stop-color:#CD392D"/>
	</radialGradient>
	<path fill="url(#SVGID_12_)" d="M9.072,127l22.903,38.045l3.321-5.529c0.83-1.386,0.83-3.646,0-5.023l-15.004-24.98
		C19.463,128.133,17.467,127,15.86,127H9.072z"/>
	<g>
		<path fill="#E6E6E5" d="M57.354,152.57l-3.357-11.826h-0.102c0.158,2.014,0.236,3.578,0.236,4.694v7.132h-3.931v-16.42h5.907
			l3.426,11.658h0.09l3.357-11.658h5.918v16.42h-4.076v-7.199c0-0.375,0.006-0.79,0.017-1.246c0.012-0.457,0.062-1.576,0.151-3.358
			h-0.101l-3.313,11.804H57.354z"/>
		<path fill="#E6E6E5" d="M78.322,152.795c-2.119,0-3.764-0.564-4.936-1.691c-1.172-1.126-1.758-2.73-1.758-4.812
			c0-2.149,0.543-3.798,1.628-4.946c1.086-1.15,2.636-1.725,4.65-1.725c1.916,0,3.396,0.5,4.441,1.5
			c1.044,0.998,1.566,2.438,1.566,4.317v1.954h-7.85c0.029,0.711,0.29,1.27,0.78,1.674s1.158,0.605,2.005,0.605
			c0.771,0,1.48-0.072,2.128-0.219s1.35-0.395,2.105-0.746v3.155c-0.688,0.353-1.4,0.595-2.134,0.729S79.341,152.795,78.322,152.795
			z M78.063,142.608c-0.516,0-0.948,0.163-1.297,0.489c-0.348,0.324-0.552,0.836-0.611,1.532h3.773
			c-0.016-0.614-0.189-1.104-0.522-1.472C79.073,142.792,78.626,142.608,78.063,142.608z"/>
		<path fill="#E6E6E5" d="M94.427,152.57v-6.941c0-0.846-0.122-1.484-0.365-1.914c-0.243-0.431-0.634-0.646-1.173-0.646
			c-0.742,0-1.277,0.297-1.606,0.888s-0.494,1.606-0.494,3.044v5.57h-4.392v-12.725h3.313l0.55,1.572h0.259
			c0.374-0.6,0.893-1.049,1.556-1.348c0.662-0.299,1.424-0.449,2.285-0.449c1.407,0,2.503,0.408,3.285,1.225
			c0.782,0.815,1.174,1.965,1.174,3.447v8.277H94.427z"/>
		<path fill="#E6E6E5" d="M110.104,152.57l-0.843-1.686h-0.09c-0.591,0.734-1.193,1.236-1.808,1.506s-1.407,0.404-2.381,0.404
			c-1.198,0-2.142-0.359-2.83-1.078s-1.033-1.73-1.033-3.033c0-1.354,0.472-2.363,1.415-3.025c0.943-0.664,2.31-1.035,4.1-1.118
			l2.122-0.067v-0.18c0-1.049-0.517-1.572-1.55-1.572c-0.929,0-2.107,0.314-3.537,0.943l-1.27-2.897
			c1.482-0.764,3.354-1.146,5.615-1.146c1.632,0,2.896,0.404,3.79,1.213s1.343,1.939,1.343,3.392v8.345H110.104z M106.848,149.695
			c0.531,0,0.986-0.169,1.364-0.506s0.567-0.775,0.567-1.314v-0.988l-1.011,0.045c-1.445,0.053-2.167,0.584-2.167,1.596
			C105.602,149.306,106.017,149.695,106.848,149.695z"/>
		<path fill="#E6E6E5" d="M122.368,149.324c0.592,0,1.299-0.146,2.122-0.438v3.2c-0.591,0.255-1.154,0.437-1.689,0.544
			c-0.535,0.109-1.162,0.164-1.881,0.164c-1.476,0-2.539-0.361-3.189-1.084c-0.652-0.723-0.978-1.832-0.978-3.33v-5.244h-1.538
			v-1.786l1.953-1.382l1.135-2.672h2.875v2.549h3.122v3.291h-3.122v4.952C121.178,148.912,121.574,149.324,122.368,149.324z"/>
		<path fill="#E6E6E5" d="M139.54,142.957h7.086v8.85c-1.924,0.658-4.039,0.988-6.346,0.988c-2.53,0-4.486-0.734-5.867-2.201
			c-1.382-1.468-2.072-3.561-2.072-6.278c0-2.65,0.756-4.713,2.269-6.188c1.513-1.475,3.631-2.212,6.356-2.212
			c1.033,0,2.009,0.097,2.926,0.292s1.716,0.441,2.397,0.741l-1.403,3.481c-1.184-0.584-2.482-0.876-3.897-0.876
			c-1.295,0-2.297,0.421-3.004,1.263c-0.708,0.844-1.062,2.047-1.062,3.611c0,1.535,0.32,2.705,0.96,3.51
			c0.641,0.805,1.563,1.207,2.769,1.207c0.659,0,1.266-0.063,1.819-0.191v-2.571h-2.931V142.957z"/>
		<path fill="#E6E6E5" d="M163.909,144.012c0,2.74-0.754,4.852-2.263,6.334s-3.629,2.225-6.362,2.225h-5.312v-16.42h5.683
			c2.636,0,4.67,0.674,6.104,2.021S163.909,141.467,163.909,144.012z M159.306,144.17c0-1.506-0.298-2.621-0.894-3.348
			c-0.595-0.726-1.499-1.089-2.712-1.089h-1.291v9.198h0.988c1.348,0,2.336-0.392,2.965-1.174
			C158.991,146.975,159.306,145.779,159.306,144.17z"/>
		<path fill="#E6E6E5" d="M173.444,142.957h7.086v8.85c-1.924,0.658-4.039,0.988-6.346,0.988c-2.53,0-4.486-0.734-5.867-2.201
			c-1.382-1.468-2.072-3.561-2.072-6.278c0-2.65,0.756-4.713,2.269-6.188c1.513-1.475,3.631-2.212,6.356-2.212
			c1.033,0,2.009,0.097,2.926,0.292s1.716,0.441,2.397,0.741l-1.403,3.481c-1.184-0.584-2.482-0.876-3.897-0.876
			c-1.295,0-2.297,0.421-3.004,1.263c-0.708,0.844-1.062,2.047-1.062,3.611c0,1.535,0.32,2.705,0.96,3.51
			c0.641,0.805,1.563,1.207,2.769,1.207c0.659,0,1.266-0.063,1.819-0.191v-2.571h-2.931V142.957z"/>
		<path fill="#E6E6E5" d="M59.05,169.499c0,1.333-0.482,2.379-1.445,3.138c-0.965,0.759-2.294,1.139-3.989,1.139
			s-3.083-0.264-4.163-0.79v-2.317c0.684,0.321,1.41,0.574,2.179,0.759c0.77,0.185,1.485,0.276,2.148,0.276
			c0.971,0,1.687-0.184,2.148-0.553c0.461-0.369,0.692-0.865,0.692-1.487c0-0.561-0.213-1.036-0.637-1.425
			c-0.424-0.391-1.299-0.852-2.625-1.385c-1.367-0.554-2.331-1.186-2.891-1.896c-0.562-0.711-0.842-1.566-0.842-2.564
			c0-1.25,0.444-2.234,1.334-2.953c0.888-0.717,2.081-1.076,3.578-1.076c1.436,0,2.864,0.314,4.286,0.943l-0.779,2
			c-1.333-0.561-2.522-0.842-3.568-0.842c-0.793,0-1.395,0.174-1.805,0.518c-0.41,0.346-0.615,0.803-0.615,1.369
			c0,0.391,0.082,0.723,0.246,1s0.434,0.539,0.81,0.785s1.053,0.57,2.031,0.974c1.1,0.458,1.906,0.886,2.42,1.282
			c0.512,0.396,0.888,0.844,1.127,1.343S59.05,168.822,59.05,169.499z"/>
		<path fill="#E6E6E5" d="M69.693,173.57l-0.338-1.487h-0.123c-0.336,0.526-0.812,0.94-1.431,1.241
			c-0.619,0.301-1.325,0.451-2.118,0.451c-1.373,0-2.398-0.342-3.076-1.025c-0.676-0.684-1.015-1.72-1.015-3.107v-7.414h2.431v6.994
			c0,0.867,0.177,1.52,0.533,1.953c0.354,0.434,0.912,0.65,1.671,0.65c1.012,0,1.755-0.303,2.23-0.906
			c0.475-0.605,0.712-1.619,0.712-3.041v-5.65h2.42v11.342H69.693z"/>
		<path fill="#E6E6E5" d="M84.582,173.57h-2.42v-6.994c0-0.867-0.164-1.516-0.492-1.943c-0.328-0.426-0.841-0.641-1.538-0.641
			c-0.93,0-1.611,0.303-2.046,0.908c-0.434,0.605-0.65,1.611-0.65,3.02v5.65h-2.41v-11.342h1.887l0.338,1.487h0.123
			c0.314-0.54,0.771-0.957,1.369-1.251c0.599-0.294,1.256-0.441,1.975-0.441c1.742,0,2.897,0.596,3.465,1.785h0.164
			c0.335-0.561,0.807-0.998,1.416-1.312c0.607-0.314,1.305-0.473,2.092-0.473c1.354,0,2.339,0.342,2.958,1.025
			c0.618,0.684,0.928,1.727,0.928,3.128v7.394H89.33v-6.994c0-0.867-0.166-1.516-0.498-1.943c-0.331-0.426-0.846-0.641-1.543-0.641
			c-0.937,0-1.622,0.293-2.056,0.877c-0.435,0.584-0.651,1.482-0.651,2.691V173.57z"/>
		<path fill="#E6E6E5" d="M104.659,173.57h-2.42v-6.994c0-0.867-0.164-1.516-0.492-1.943c-0.328-0.426-0.841-0.641-1.538-0.641
			c-0.93,0-1.611,0.303-2.046,0.908c-0.434,0.605-0.65,1.611-0.65,3.02v5.65h-2.41v-11.342h1.887l0.338,1.487h0.123
			c0.314-0.54,0.771-0.957,1.369-1.251c0.599-0.294,1.256-0.441,1.975-0.441c1.742,0,2.897,0.596,3.465,1.785h0.164
			c0.335-0.561,0.807-0.998,1.416-1.312c0.607-0.314,1.305-0.473,2.092-0.473c1.354,0,2.339,0.342,2.958,1.025
			c0.618,0.684,0.928,1.727,0.928,3.128v7.394h-2.409v-6.994c0-0.867-0.166-1.516-0.498-1.943c-0.331-0.426-0.846-0.641-1.543-0.641
			c-0.937,0-1.622,0.293-2.056,0.877c-0.435,0.584-0.651,1.482-0.651,2.691V173.57z"/>
		<path fill="#E6E6E5" d="M115.036,159.225c0-0.431,0.118-0.762,0.354-0.994c0.236-0.232,0.572-0.35,1.011-0.35
			c0.423,0,0.753,0.117,0.989,0.35c0.235,0.232,0.354,0.563,0.354,0.994c0,0.41-0.118,0.732-0.354,0.969
			c-0.236,0.236-0.566,0.354-0.989,0.354c-0.438,0-0.774-0.117-1.011-0.354C115.154,159.957,115.036,159.635,115.036,159.225z
			 M117.59,173.57h-2.41v-11.342h2.41V173.57z"/>
		<path fill="#E6E6E5" d="M125.259,171.826c0.588,0,1.176-0.092,1.764-0.276v1.815c-0.267,0.115-0.61,0.213-1.03,0.291
			c-0.421,0.079-0.856,0.119-1.308,0.119c-2.283,0-3.425-1.203-3.425-3.609v-6.111h-1.548v-1.066l1.66-0.883l0.82-2.398h1.487v2.521
			h3.229v1.826h-3.229v6.07c0,0.58,0.146,1.01,0.436,1.287C124.406,171.688,124.787,171.826,125.259,171.826z"/>
		<path fill="#E6E6E5" d="M144.105,173.57h-10.161v-1.826l3.866-3.886c1.141-1.169,1.898-1.997,2.271-2.487
			c0.373-0.488,0.645-0.947,0.815-1.379c0.171-0.43,0.256-0.892,0.256-1.384c0-0.677-0.203-1.21-0.609-1.6
			c-0.407-0.39-0.969-0.585-1.688-0.585c-0.574,0-1.129,0.106-1.666,0.318c-0.536,0.212-1.157,0.595-1.861,1.148l-1.302-1.59
			c0.834-0.703,1.644-1.203,2.431-1.496c0.785-0.295,1.623-0.441,2.512-0.441c1.395,0,2.512,0.363,3.354,1.092
			c0.84,0.729,1.261,1.707,1.261,2.938c0,0.678-0.121,1.32-0.364,1.928c-0.242,0.609-0.615,1.236-1.117,1.883
			c-0.503,0.645-1.338,1.519-2.508,2.619l-2.604,2.522v0.103h7.115V173.57z"/>
		<path fill="#E6E6E5" d="M156.093,166.074c0,2.604-0.418,4.539-1.256,5.804c-0.837,1.265-2.117,1.897-3.84,1.897
			c-1.668,0-2.933-0.653-3.794-1.959s-1.292-3.22-1.292-5.742c0-2.646,0.419-4.596,1.256-5.85c0.838-1.254,2.114-1.882,3.83-1.882
			c1.675,0,2.943,0.656,3.805,1.969S156.093,163.545,156.093,166.074z M148.352,166.074c0,2.044,0.21,3.504,0.631,4.379
			c0.42,0.875,1.092,1.312,2.015,1.312s1.598-0.445,2.025-1.334c0.427-0.889,0.641-2.341,0.641-4.357
			c0-2.01-0.214-3.464-0.641-4.363c-0.428-0.898-1.103-1.348-2.025-1.348s-1.595,0.44-2.015,1.322
			C148.562,162.567,148.352,164.03,148.352,166.074z"/>
		<path fill="#E6E6E5" d="M164.993,173.57h-2.41v-9.68c0-1.156,0.027-2.072,0.082-2.748c-0.157,0.164-0.35,0.345-0.579,0.543
			c-0.229,0.198-0.996,0.827-2.302,1.887l-1.21-1.527l4.409-3.467h2.01V173.57z"/>
		<path fill="#E6E6E5" d="M180.599,170.299h-2.02v3.271h-2.348v-3.271h-6.85v-1.855l6.85-9.906h2.348v9.762h2.02V170.299z
			 M176.231,168.299v-3.763c0-1.34,0.033-2.437,0.102-3.292h-0.082c-0.191,0.451-0.492,0.998-0.902,1.641l-3.722,5.414H176.231z"/>
	</g>
</g>
</svg>
